<?xml version="1.0" encoding="utf-8"?>
<!-- Generator: Adobe Illustrator 25.4.1, SVG Export Plug-In . SVG Version: 6.00 Build 0)  -->
<svg version="1.1" id="Layer_1" xmlns="http://www.w3.org/2000/svg" xmlns:xlink="http://www.w3.org/1999/xlink" x="0px" y="0px"
	 viewBox="0 0 267.6 69.1" style="enable-background:new 0 0 267.6 69.1;" xml:space="preserve">
<style type="text/css">
	.st0{fill:#0000D8;}
	.st1{fill:#0000D8;fill-opacity:0;}
	.st2{fill:#FFD400;}
</style>
<g>
	<g>
		<path class="st0" d="M75.5,63V2.5h22.3c0.3,0,0.6,0,0.9,0c3.6,0,6.7,0.5,9.5,1.6c2.6,1,4.8,2.4,6.7,4.3c3.4,3.6,5.3,8.8,5.5,15
			c0.1,3.4-0.4,6.4-1.4,9c-1,2.6-2.5,4.8-4.5,6.5c-1.9,1.8-4.3,3.1-7.2,4.1c-2.8,0.9-5.9,1.4-9.4,1.5l-4.7,0.2V63L75.5,63z
			 M95.6,17.1c-0.1,0-0.3,0-0.4,0l-3.7,0.1l0.3,13.4l3.7-0.1c2.6-0.1,4.5-0.7,5.8-1.8c1.4-1.1,2-2.8,1.9-5c0-1.3-0.4-3.2-1.9-4.5
			C100.1,17.7,98.1,17.1,95.6,17.1z"/>
		<path class="st0" d="M142.7,61.9l-0.5,0.2c-2,0.8-2.7,0.9-4.9,0.9c-2.5,0-5-0.5-7.2-1.4c-2.3-0.9-4.3-2.3-6-4
			c-1.6-1.6-3-3.7-4-6.1v-0.1c-1-2.5-1.5-5-1.5-7.7c0-5.3,1.9-10.3,5.3-13.9c3.5-3.8,8.2-5.8,13.4-5.8c2.2,0,3.1,0.1,4.9,0.8
			l0.5,0.2v-3.2h14.4V63h-14.4V61.9z M138.7,37.7c-1.6,0-3,0.6-4,1.6c-1.1,1.2-1.8,2.9-1.8,4.9c0,1.8,0.6,3.4,1.6,4.6
			c1.1,1,2.5,1.6,4.2,1.6c1.6,0,3-0.6,4.1-1.5v-0.1c1.1-1.2,1.6-2.8,1.6-4.6s-0.6-3.6-1.6-4.8C141.6,38.2,140.2,37.7,138.7,37.7z"/>
	</g>
	<g>
		<path class="st0" d="M232.2,63c-0.1,0-0.1,0-0.1,0h-27.7V2.5l1.4,0.1c4.9,0,17.1,0,23.8,0c3.3,0,7.9,0.6,11.6,3.1
			c1.8,1.2,3.1,2.7,4,4.5c1,1.9,1.5,4.3,1.5,6.8c0,5.7-2.1,9.2-3.8,11.2c-0.5,0.6-1.1,1.1-1.7,1.6l-1.1,0.8l1.3,0.6
			c1.1,0.5,2.1,1.1,3,1.9c4.5,3.6,5.5,9,5.5,12.8c0,3.9-0.9,7.2-2.6,9.9c-1.4,2.1-3.3,3.8-5.8,5.1C237.3,63,232.7,63,232.2,63z
			 M219.9,26.1h6.9c0.3,0,1.2-0.1,2.2-0.7c0.9-0.6,2-1.7,2-3.9c0-1.7-0.7-2.8-2.1-3.5c-1.1-0.6-2.4-0.7-2.8-0.7c-0.1,0-0.1,0-0.1,0
			h-0.1h-5.9L219.9,26.1L219.9,26.1z M220.1,48.7h8.2c0.4,0,1.5-0.1,2.6-0.9c1.6-0.9,2.4-2.4,2.4-4.4c0-1.9-0.8-3.2-2.5-4
			c-1.4-0.6-2.9-0.7-3.5-0.7c-0.1,0-0.1,0-0.2,0h-7L220.1,48.7L220.1,48.7z"/>
		<path class="st0" d="M266.9,10.3c0,4.3-3.5,7.8-7.8,7.8s-7.8-3.5-7.8-7.8c0-4.3,3.5-7.8,7.8-7.8C263.5,2.5,266.9,6,266.9,10.3z
			 M266.9,62.8h-15.6v-41h15.6L266.9,62.8L266.9,62.8z"/>
	</g>
	<rect x="169" y="36.8" class="st0" width="23.6" height="9.4"/>
</g>
<g>
	<path class="st0" d="M44,34.6c-2.3,4.3-5.9,7.8-10.3,9.9c0.1,0.4,0.1,0.8,0.1,1.2c0,5.7-4.6,10.4-10.4,10.4S13,51.4,13,45.7
		c0-0.4,0-0.8,0.1-1.2C5.3,40.7,0,32.7,0,23.4v22.3c0,12.9,10.5,23.4,23.4,23.4s23.4-10.5,23.4-23.4C46.8,41.7,45.8,37.9,44,34.6z"
		/>
	<path class="st0" d="M13,0v2.4C5.3,6.3,0,14.2,0,23.4V0H13z"/>
	<path class="st1" d="M44,34.6c-2.3,4.3-5.9,7.8-10.3,9.9c-0.6-5.2-5-9.2-10.3-9.2c-5.3,0-9.7,4-10.3,9.2C5.3,40.7,0,32.7,0,23.4
		c0-9.2,5.3-17.1,13-21v22.3c3.1-1.6,6.7-2.4,10.4-2.4C32.3,22.3,40.1,27.2,44,34.6z"/>
	<path class="st2" d="M33.8,45.7c0,5.7-4.6,10.4-10.4,10.4S13,51.4,13,45.7c0-0.4,0-0.8,0.1-1.2c3.1,1.5,6.6,2.4,10.3,2.4
		s7.2-0.9,10.3-2.4C33.8,44.9,33.8,45.3,33.8,45.7z"/>
	<path class="st0" d="M33.7,44.5c-3.1,1.5-6.6,2.4-10.3,2.4s-7.2-0.9-10.3-2.4c0.6-5.2,5-9.2,10.3-9.2S33.1,39.3,33.7,44.5z"/>
	<path class="st0" d="M46.8,23.4c0,4-1,7.8-2.8,11.1c-4-7.3-11.7-12.3-20.6-12.3c-3.7,0-7.3,0.9-10.4,2.4V2.4
		C16.1,0.9,19.7,0,23.4,0C36.4,0,46.8,10.5,46.8,23.4z"/>
</g>
</svg>
